<svg width="214" height="43" viewBox="0 0 214 43" fill="none" xmlns="http://www.w3.org/2000/svg">
<path d="M67.31 17.81L65.75 32H63.2L65.75 9.95L74.15 25.16L82.55 9.95L85.1 32H82.55L80.99 17.81L74.15 30.05L67.31 17.81ZM97.3871 23.6C97.3871 22.46 97.1371 21.6 96.6371 21.02C96.1371 20.44 95.4071 20.15 94.4471 20.15C93.7471 20.15 93.1271 20.3 92.5871 20.6C92.0671 20.88 91.6571 21.28 91.3571 21.8C91.0771 22.32 90.9371 22.92 90.9371 23.6V32H88.5371V18.2H90.9371V20.36C91.3971 19.52 91.9671 18.9 92.6471 18.5C93.3471 18.1 94.1471 17.9 95.0471 17.9C96.5071 17.9 97.6571 18.39 98.4971 19.37C99.3571 20.33 99.7871 21.64 99.7871 23.3V32H97.3871V23.6ZM109.639 32.3C108.359 32.3 107.219 32 106.219 31.4C105.239 30.78 104.469 29.93 103.909 28.85C103.369 27.77 103.099 26.52 103.099 25.1C103.099 23.66 103.379 22.4 103.939 21.32C104.519 20.24 105.319 19.4 106.339 18.8C107.379 18.2 108.579 17.9 109.939 17.9C111.299 17.9 112.459 18.19 113.419 18.77C114.399 19.33 115.149 20.14 115.669 21.2C116.189 22.26 116.449 23.52 116.449 24.98C116.449 25.12 116.439 25.27 116.419 25.43C116.419 25.57 116.419 25.66 116.419 25.7H104.629V23.66H114.529L113.569 25.04C113.629 24.94 113.689 24.79 113.749 24.59C113.809 24.37 113.839 24.19 113.839 24.05C113.839 23.23 113.669 22.52 113.329 21.92C113.009 21.32 112.559 20.85 111.979 20.51C111.399 20.17 110.719 20 109.939 20C109.019 20 108.229 20.2 107.569 20.6C106.929 20.98 106.429 21.54 106.069 22.28C105.729 23 105.549 23.89 105.529 24.95C105.529 26.03 105.699 26.95 106.039 27.71C106.379 28.47 106.879 29.05 107.539 29.45C108.199 29.85 108.999 30.05 109.939 30.05C110.879 30.05 111.709 29.85 112.429 29.45C113.149 29.03 113.759 28.4 114.259 27.56L116.209 28.79C115.489 29.95 114.579 30.83 113.479 31.43C112.399 32.01 111.119 32.3 109.639 32.3ZM138.638 23.3V32H136.238V23.6C136.238 22.42 136.018 21.55 135.578 20.99C135.158 20.43 134.498 20.15 133.598 20.15C132.938 20.15 132.368 20.29 131.888 20.57C131.408 20.83 131.038 21.22 130.778 21.74C130.518 22.26 130.388 22.88 130.388 23.6V32H127.988V23.6C127.988 22.42 127.768 21.55 127.328 20.99C126.908 20.43 126.248 20.15 125.348 20.15C124.688 20.15 124.118 20.29 123.638 20.57C123.158 20.83 122.788 21.22 122.528 21.74C122.268 22.26 122.138 22.88 122.138 23.6V32H119.738V18.2H122.138V20.21C122.558 19.43 123.078 18.85 123.698 18.47C124.338 18.09 125.088 17.9 125.948 17.9C126.908 17.9 127.728 18.13 128.408 18.59C129.108 19.03 129.618 19.66 129.938 20.48C130.418 19.62 131.018 18.98 131.738 18.56C132.458 18.12 133.278 17.9 134.198 17.9C135.138 17.9 135.938 18.11 136.598 18.53C137.258 18.95 137.758 19.57 138.098 20.39C138.458 21.19 138.638 22.16 138.638 23.3ZM141.946 25.1C141.946 23.7 142.256 22.46 142.876 21.38C143.516 20.3 144.376 19.45 145.456 18.83C146.536 18.21 147.746 17.9 149.086 17.9C150.446 17.9 151.656 18.21 152.716 18.83C153.796 19.45 154.646 20.3 155.266 21.38C155.906 22.46 156.226 23.7 156.226 25.1C156.226 26.48 155.906 27.72 155.266 28.82C154.646 29.9 153.796 30.75 152.716 31.37C151.656 31.99 150.446 32.3 149.086 32.3C147.746 32.3 146.536 31.99 145.456 31.37C144.376 30.75 143.516 29.9 142.876 28.82C142.256 27.72 141.946 26.48 141.946 25.1ZM144.376 25.1C144.376 26.06 144.576 26.91 144.976 27.65C145.396 28.39 145.956 28.98 146.656 29.42C147.376 29.84 148.186 30.05 149.086 30.05C149.986 30.05 150.786 29.84 151.486 29.42C152.206 28.98 152.766 28.39 153.166 27.65C153.586 26.91 153.796 26.06 153.796 25.1C153.796 24.14 153.586 23.29 153.166 22.55C152.766 21.79 152.206 21.2 151.486 20.78C150.786 20.36 149.986 20.15 149.086 20.15C148.186 20.15 147.376 20.36 146.656 20.78C145.956 21.2 145.396 21.79 144.976 22.55C144.576 23.29 144.376 24.14 144.376 25.1ZM160.093 27.77C160.373 28.19 160.693 28.58 161.053 28.94C161.413 29.3 161.823 29.59 162.283 29.81C162.763 30.01 163.283 30.11 163.843 30.11C164.523 30.11 165.053 29.96 165.433 29.66C165.833 29.34 166.033 28.91 166.033 28.37C166.033 27.89 165.873 27.49 165.553 27.17C165.253 26.83 164.863 26.55 164.383 26.33C163.903 26.09 163.393 25.87 162.853 25.67C162.253 25.43 161.643 25.15 161.023 24.83C160.423 24.49 159.913 24.06 159.493 23.54C159.093 23 158.893 22.33 158.893 21.53C158.893 20.71 159.103 20.03 159.523 19.49C159.963 18.95 160.523 18.55 161.203 18.29C161.903 18.03 162.623 17.9 163.363 17.9C164.103 17.9 164.793 18.02 165.433 18.26C166.093 18.5 166.673 18.82 167.173 19.22C167.673 19.62 168.063 20.08 168.343 20.6L166.423 21.83C166.043 21.31 165.563 20.88 164.983 20.54C164.423 20.2 163.783 20.03 163.063 20.03C162.563 20.03 162.133 20.14 161.773 20.36C161.413 20.58 161.233 20.92 161.233 21.38C161.233 21.74 161.373 22.06 161.653 22.34C161.933 22.62 162.293 22.87 162.733 23.09C163.173 23.31 163.633 23.52 164.113 23.72C164.913 24.04 165.643 24.39 166.303 24.77C166.963 25.13 167.483 25.57 167.863 26.09C168.263 26.61 168.463 27.28 168.463 28.1C168.463 29.3 168.023 30.3 167.143 31.1C166.283 31.9 165.143 32.3 163.723 32.3C162.803 32.3 161.973 32.14 161.233 31.82C160.493 31.48 159.863 31.05 159.343 30.53C158.843 30.01 158.463 29.48 158.203 28.94L160.093 27.77ZM182.427 18.2L173.427 38.6H170.727L174.507 30.05L169.227 18.2H172.077L176.457 29L175.467 28.88L179.727 18.2H182.427ZM193.539 23.6C193.539 22.46 193.289 21.6 192.789 21.02C192.289 20.44 191.559 20.15 190.599 20.15C189.899 20.15 189.279 20.3 188.739 20.6C188.219 20.88 187.809 21.28 187.509 21.8C187.229 22.32 187.089 22.92 187.089 23.6V32H184.689V18.2H187.089V20.36C187.549 19.52 188.119 18.9 188.799 18.5C189.499 18.1 190.299 17.9 191.199 17.9C192.659 17.9 193.809 18.39 194.649 19.37C195.509 20.33 195.939 21.64 195.939 23.3V32H193.539V23.6ZM205.791 32.3C204.511 32.3 203.371 32 202.371 31.4C201.391 30.78 200.621 29.93 200.061 28.85C199.521 27.77 199.251 26.52 199.251 25.1C199.251 23.66 199.531 22.4 200.091 21.32C200.671 20.24 201.471 19.4 202.491 18.8C203.531 18.2 204.731 17.9 206.091 17.9C207.451 17.9 208.611 18.19 209.571 18.77C210.551 19.33 211.301 20.14 211.821 21.2C212.341 22.26 212.601 23.52 212.601 24.98C212.601 25.12 212.591 25.27 212.571 25.43C212.571 25.57 212.571 25.66 212.571 25.7H200.781V23.66H210.681L209.721 25.04C209.781 24.94 209.841 24.79 209.901 24.59C209.961 24.37 209.991 24.19 209.991 24.05C209.991 23.23 209.821 22.52 209.481 21.92C209.161 21.32 208.711 20.85 208.131 20.51C207.551 20.17 206.871 20 206.091 20C205.171 20 204.381 20.2 203.721 20.6C203.081 20.98 202.581 21.54 202.221 22.28C201.881 23 201.701 23.89 201.681 24.95C201.681 26.03 201.851 26.95 202.191 27.71C202.531 28.47 203.031 29.05 203.691 29.45C204.351 29.85 205.151 30.05 206.091 30.05C207.031 30.05 207.861 29.85 208.581 29.45C209.301 29.03 209.911 28.4 210.411 27.56L212.361 28.79C211.641 29.95 210.731 30.83 209.631 31.43C208.551 32.01 207.271 32.3 205.791 32.3Z" fill="#464646"/>
<path d="M18.527 9.49141L22.7682 7.375H37.625V15.4375H27.9836C26.1443 14.1693 23.9104 13.4219 21.5 13.4219C19.0896 13.4219 16.8641 14.1693 15.0164 15.4375H5.375V10.0625H16.125C16.9564 10.0625 17.7795 9.86934 18.527 9.49141ZM0 10.0625V34.25C0 37.2146 2.41035 39.625 5.375 39.625H37.625C40.5896 39.625 43 37.2146 43 34.25V7.375C43 4.41035 40.5896 2 37.625 2H22.7682C21.9367 2 21.1137 2.19316 20.3662 2.57109L16.125 4.6875H13.4375V3.34375C13.4375 2.60469 12.8328 2 12.0938 2H6.71875C5.97969 2 5.375 2.60469 5.375 3.34375V4.6875C2.41035 4.6875 0 7.09785 0 10.0625ZM14.1094 24.8438C14.1094 22.8836 14.888 21.0038 16.274 19.6178C17.66 18.2318 19.5399 17.4531 21.5 17.4531C23.4601 17.4531 25.34 18.2318 26.726 19.6178C28.112 21.0038 28.8906 22.8836 28.8906 24.8438C28.8906 26.8039 28.112 28.6837 26.726 30.0697C25.34 31.4557 23.4601 32.2344 21.5 32.2344C19.5399 32.2344 17.66 31.4557 16.274 30.0697C14.888 28.6837 14.1094 26.8039 14.1094 24.8438Z" fill="#464646"/>
</svg>
